<mxfile host="app.diagrams.net" modified="2021-05-25T12:39:49.135Z" agent="5.0 (Windows NT 10.0; Win64; x64) AppleWebKit/537.36 (KHTML, like Gecko) Chrome/90.0.4430.212 Safari/537.36 Edg/90.0.818.66" etag="D0WeKeGl8g21hbIyb-VU" version="14.7.1" type="github">
  <diagram id="jwcxY2jBZkeDqB1LMIRI" name="Page-1">
    <mxGraphModel dx="2310" dy="4290" grid="1" gridSize="10" guides="1" tooltips="1" connect="1" arrows="1" fold="1" page="1" pageScale="1" pageWidth="827" pageHeight="1169" math="0" shadow="0">
      <root>
        <mxCell id="0" />
        <mxCell id="1" parent="0" />
        <mxCell id="-INGEAKkMjgwKV0l87I1-1" value="사용자" style="shape=umlActor;verticalLabelPosition=bottom;verticalAlign=top;html=1;outlineConnect=0;" parent="1" vertex="1">
          <mxGeometry x="-800" y="-3470" width="30" height="60" as="geometry" />
        </mxCell>
        <mxCell id="Ypo_s_5RHP7YJ0-s-bhN-2" value="" style="endArrow=classic;html=1;entryX=0;entryY=0.5;entryDx=0;entryDy=0;" edge="1" parent="1" source="-INGEAKkMjgwKV0l87I1-1" target="Ypo_s_5RHP7YJ0-s-bhN-5">
          <mxGeometry width="50" height="50" relative="1" as="geometry">
            <mxPoint x="-480" y="-3280" as="sourcePoint" />
            <mxPoint x="-720" y="-3440" as="targetPoint" />
          </mxGeometry>
        </mxCell>
        <mxCell id="Ypo_s_5RHP7YJ0-s-bhN-5" value="INDEX" style="ellipse;whiteSpace=wrap;html=1;" vertex="1" parent="1">
          <mxGeometry x="-720" y="-3470" width="90" height="60" as="geometry" />
        </mxCell>
        <mxCell id="Ypo_s_5RHP7YJ0-s-bhN-6" value="회원가입" style="ellipse;whiteSpace=wrap;html=1;" vertex="1" parent="1">
          <mxGeometry x="-580" y="-3470" width="90" height="60" as="geometry" />
        </mxCell>
        <mxCell id="Ypo_s_5RHP7YJ0-s-bhN-7" value="로그인" style="ellipse;whiteSpace=wrap;html=1;" vertex="1" parent="1">
          <mxGeometry x="-720" y="-3370" width="90" height="60" as="geometry" />
        </mxCell>
        <mxCell id="Ypo_s_5RHP7YJ0-s-bhN-8" value="쉐어하우스" style="ellipse;whiteSpace=wrap;html=1;" vertex="1" parent="1">
          <mxGeometry x="-580" y="-3370" width="90" height="60" as="geometry" />
        </mxCell>
        <mxCell id="Ypo_s_5RHP7YJ0-s-bhN-9" value="하우스메이트" style="ellipse;whiteSpace=wrap;html=1;" vertex="1" parent="1">
          <mxGeometry x="-580" y="-3280" width="90" height="60" as="geometry" />
        </mxCell>
        <mxCell id="Ypo_s_5RHP7YJ0-s-bhN-11" value="" style="endArrow=classic;html=1;exitX=1;exitY=0.5;exitDx=0;exitDy=0;entryX=0;entryY=0.5;entryDx=0;entryDy=0;" edge="1" parent="1" source="Ypo_s_5RHP7YJ0-s-bhN-5" target="Ypo_s_5RHP7YJ0-s-bhN-6">
          <mxGeometry width="50" height="50" relative="1" as="geometry">
            <mxPoint x="-480" y="-3280" as="sourcePoint" />
            <mxPoint x="-430" y="-3330" as="targetPoint" />
          </mxGeometry>
        </mxCell>
        <mxCell id="Ypo_s_5RHP7YJ0-s-bhN-13" value="" style="endArrow=classic;html=1;exitX=0.5;exitY=1;exitDx=0;exitDy=0;entryX=0.5;entryY=0;entryDx=0;entryDy=0;" edge="1" parent="1" source="Ypo_s_5RHP7YJ0-s-bhN-5" target="Ypo_s_5RHP7YJ0-s-bhN-7">
          <mxGeometry width="50" height="50" relative="1" as="geometry">
            <mxPoint x="-620" y="-3430" as="sourcePoint" />
            <mxPoint x="-570" y="-3430" as="targetPoint" />
          </mxGeometry>
        </mxCell>
        <mxCell id="Ypo_s_5RHP7YJ0-s-bhN-14" value="찜 하기&lt;br&gt;초대&lt;br&gt;신청" style="ellipse;whiteSpace=wrap;html=1;" vertex="1" parent="1">
          <mxGeometry x="-140" y="-3320" width="90" height="60" as="geometry" />
        </mxCell>
        <mxCell id="Ypo_s_5RHP7YJ0-s-bhN-15" value="쉐어하우스&lt;br&gt;목록" style="ellipse;whiteSpace=wrap;html=1;" vertex="1" parent="1">
          <mxGeometry x="-440" y="-3370" width="90" height="60" as="geometry" />
        </mxCell>
        <mxCell id="Ypo_s_5RHP7YJ0-s-bhN-16" value="하우스메이트&lt;br&gt;목록" style="ellipse;whiteSpace=wrap;html=1;" vertex="1" parent="1">
          <mxGeometry x="-440" y="-3280" width="90" height="60" as="geometry" />
        </mxCell>
        <mxCell id="Ypo_s_5RHP7YJ0-s-bhN-17" value="쉐어하우스&lt;br&gt;상세보기" style="ellipse;whiteSpace=wrap;html=1;" vertex="1" parent="1">
          <mxGeometry x="-300" y="-3370" width="90" height="60" as="geometry" />
        </mxCell>
        <mxCell id="Ypo_s_5RHP7YJ0-s-bhN-18" value="하우스메이트&lt;br&gt;상세보기&lt;br&gt;" style="ellipse;whiteSpace=wrap;html=1;" vertex="1" parent="1">
          <mxGeometry x="-300" y="-3280" width="90" height="60" as="geometry" />
        </mxCell>
        <mxCell id="Ypo_s_5RHP7YJ0-s-bhN-34" value="" style="endArrow=classic;html=1;entryX=0;entryY=0.5;entryDx=0;entryDy=0;exitX=1;exitY=0.5;exitDx=0;exitDy=0;" edge="1" parent="1" source="Ypo_s_5RHP7YJ0-s-bhN-7" target="Ypo_s_5RHP7YJ0-s-bhN-8">
          <mxGeometry width="50" height="50" relative="1" as="geometry">
            <mxPoint x="-720" y="-3170" as="sourcePoint" />
            <mxPoint x="-670" y="-3220" as="targetPoint" />
          </mxGeometry>
        </mxCell>
        <mxCell id="Ypo_s_5RHP7YJ0-s-bhN-36" value="" style="endArrow=classic;html=1;exitX=0.5;exitY=1;exitDx=0;exitDy=0;entryX=0.5;entryY=0;entryDx=0;entryDy=0;" edge="1" parent="1" source="Ypo_s_5RHP7YJ0-s-bhN-7" target="Ypo_s_5RHP7YJ0-s-bhN-43">
          <mxGeometry width="50" height="50" relative="1" as="geometry">
            <mxPoint x="-620" y="-3330" as="sourcePoint" />
            <mxPoint x="-675" y="-3270" as="targetPoint" />
          </mxGeometry>
        </mxCell>
        <mxCell id="Ypo_s_5RHP7YJ0-s-bhN-37" value="" style="endArrow=classic;html=1;entryX=0;entryY=1;entryDx=0;entryDy=0;exitX=1;exitY=0.5;exitDx=0;exitDy=0;" edge="1" parent="1" source="Ypo_s_5RHP7YJ0-s-bhN-18" target="Ypo_s_5RHP7YJ0-s-bhN-14">
          <mxGeometry width="50" height="50" relative="1" as="geometry">
            <mxPoint x="-610" y="-3320" as="sourcePoint" />
            <mxPoint x="-560" y="-3320" as="targetPoint" />
          </mxGeometry>
        </mxCell>
        <mxCell id="Ypo_s_5RHP7YJ0-s-bhN-38" value="" style="endArrow=classic;html=1;entryX=0;entryY=0.5;entryDx=0;entryDy=0;exitX=1;exitY=0.5;exitDx=0;exitDy=0;" edge="1" parent="1" source="Ypo_s_5RHP7YJ0-s-bhN-16" target="Ypo_s_5RHP7YJ0-s-bhN-18">
          <mxGeometry width="50" height="50" relative="1" as="geometry">
            <mxPoint x="-600" y="-3310" as="sourcePoint" />
            <mxPoint x="-550" y="-3310" as="targetPoint" />
          </mxGeometry>
        </mxCell>
        <mxCell id="Ypo_s_5RHP7YJ0-s-bhN-39" value="" style="endArrow=classic;html=1;exitX=1;exitY=0.5;exitDx=0;exitDy=0;entryX=0;entryY=0.5;entryDx=0;entryDy=0;" edge="1" parent="1" source="Ypo_s_5RHP7YJ0-s-bhN-9" target="Ypo_s_5RHP7YJ0-s-bhN-16">
          <mxGeometry width="50" height="50" relative="1" as="geometry">
            <mxPoint x="-590" y="-3300" as="sourcePoint" />
            <mxPoint x="-440" y="-3240" as="targetPoint" />
          </mxGeometry>
        </mxCell>
        <mxCell id="Ypo_s_5RHP7YJ0-s-bhN-40" value="" style="endArrow=classic;html=1;entryX=0;entryY=0;entryDx=0;entryDy=0;exitX=1;exitY=0.5;exitDx=0;exitDy=0;" edge="1" parent="1" source="Ypo_s_5RHP7YJ0-s-bhN-17" target="Ypo_s_5RHP7YJ0-s-bhN-14">
          <mxGeometry width="50" height="50" relative="1" as="geometry">
            <mxPoint x="-580" y="-3290" as="sourcePoint" />
            <mxPoint x="-530" y="-3290" as="targetPoint" />
          </mxGeometry>
        </mxCell>
        <mxCell id="Ypo_s_5RHP7YJ0-s-bhN-41" value="" style="endArrow=classic;html=1;entryX=0;entryY=0.5;entryDx=0;entryDy=0;exitX=1;exitY=0.5;exitDx=0;exitDy=0;" edge="1" parent="1" source="Ypo_s_5RHP7YJ0-s-bhN-15" target="Ypo_s_5RHP7YJ0-s-bhN-17">
          <mxGeometry width="50" height="50" relative="1" as="geometry">
            <mxPoint x="-570" y="-3280" as="sourcePoint" />
            <mxPoint x="-520" y="-3280" as="targetPoint" />
          </mxGeometry>
        </mxCell>
        <mxCell id="Ypo_s_5RHP7YJ0-s-bhN-42" value="" style="endArrow=classic;html=1;entryX=0;entryY=0.5;entryDx=0;entryDy=0;exitX=1;exitY=0.5;exitDx=0;exitDy=0;" edge="1" parent="1" source="Ypo_s_5RHP7YJ0-s-bhN-8" target="Ypo_s_5RHP7YJ0-s-bhN-15">
          <mxGeometry width="50" height="50" relative="1" as="geometry">
            <mxPoint x="-560" y="-3270" as="sourcePoint" />
            <mxPoint x="-510" y="-3270" as="targetPoint" />
          </mxGeometry>
        </mxCell>
        <mxCell id="Ypo_s_5RHP7YJ0-s-bhN-43" value="프리미엄&lt;br&gt;결제" style="ellipse;whiteSpace=wrap;html=1;" vertex="1" parent="1">
          <mxGeometry x="-720" y="-3280" width="90" height="60" as="geometry" />
        </mxCell>
        <mxCell id="Ypo_s_5RHP7YJ0-s-bhN-44" value="나의 성향&lt;br&gt;관리" style="ellipse;whiteSpace=wrap;html=1;" vertex="1" parent="1">
          <mxGeometry x="-440" y="-3100" width="90" height="60" as="geometry" />
        </mxCell>
        <mxCell id="Ypo_s_5RHP7YJ0-s-bhN-45" value="마이페이지" style="ellipse;whiteSpace=wrap;html=1;" vertex="1" parent="1">
          <mxGeometry x="-580" y="-3100" width="90" height="60" as="geometry" />
        </mxCell>
        <mxCell id="Ypo_s_5RHP7YJ0-s-bhN-46" value="커뮤니티" style="ellipse;whiteSpace=wrap;html=1;" vertex="1" parent="1">
          <mxGeometry x="-580" y="-3190" width="90" height="60" as="geometry" />
        </mxCell>
        <mxCell id="Ypo_s_5RHP7YJ0-s-bhN-47" value="매칭" style="ellipse;whiteSpace=wrap;html=1;" vertex="1" parent="1">
          <mxGeometry x="-720" y="-3190" width="90" height="60" as="geometry" />
        </mxCell>
        <mxCell id="Ypo_s_5RHP7YJ0-s-bhN-52" value="" style="endArrow=classic;html=1;entryX=0;entryY=0.5;entryDx=0;entryDy=0;" edge="1" parent="1" target="Ypo_s_5RHP7YJ0-s-bhN-9">
          <mxGeometry width="50" height="50" relative="1" as="geometry">
            <mxPoint x="-610" y="-3340" as="sourcePoint" />
            <mxPoint x="-665" y="-3260" as="targetPoint" />
            <Array as="points">
              <mxPoint x="-610" y="-3250" />
            </Array>
          </mxGeometry>
        </mxCell>
        <mxCell id="Ypo_s_5RHP7YJ0-s-bhN-53" value="" style="endArrow=classic;html=1;entryX=0;entryY=0.5;entryDx=0;entryDy=0;" edge="1" parent="1" target="Ypo_s_5RHP7YJ0-s-bhN-46">
          <mxGeometry width="50" height="50" relative="1" as="geometry">
            <mxPoint x="-610" y="-3340" as="sourcePoint" />
            <mxPoint x="-470" y="-3300" as="targetPoint" />
            <Array as="points">
              <mxPoint x="-610" y="-3160" />
            </Array>
          </mxGeometry>
        </mxCell>
        <mxCell id="Ypo_s_5RHP7YJ0-s-bhN-54" value="회원정보&lt;br&gt;관리" style="ellipse;whiteSpace=wrap;html=1;" vertex="1" parent="1">
          <mxGeometry x="-440" y="-3190" width="90" height="60" as="geometry" />
        </mxCell>
        <mxCell id="Ypo_s_5RHP7YJ0-s-bhN-55" value="결제 내역" style="ellipse;whiteSpace=wrap;html=1;" vertex="1" parent="1">
          <mxGeometry x="-440" y="-2940" width="90" height="60" as="geometry" />
        </mxCell>
        <mxCell id="Ypo_s_5RHP7YJ0-s-bhN-56" value="하우스&amp;amp;메이트&lt;br&gt;관리" style="ellipse;whiteSpace=wrap;html=1;" vertex="1" parent="1">
          <mxGeometry x="-440" y="-3020" width="90" height="60" as="geometry" />
        </mxCell>
        <mxCell id="Ypo_s_5RHP7YJ0-s-bhN-57" value="" style="endArrow=classic;html=1;entryX=0;entryY=0.5;entryDx=0;entryDy=0;" edge="1" parent="1" target="Ypo_s_5RHP7YJ0-s-bhN-54">
          <mxGeometry width="50" height="50" relative="1" as="geometry">
            <mxPoint x="-470" y="-3070" as="sourcePoint" />
            <mxPoint x="-370" y="-3100" as="targetPoint" />
            <Array as="points">
              <mxPoint x="-470" y="-3070" />
              <mxPoint x="-470" y="-3160" />
            </Array>
          </mxGeometry>
        </mxCell>
        <mxCell id="Ypo_s_5RHP7YJ0-s-bhN-58" value="" style="endArrow=classic;html=1;entryX=0;entryY=0.5;entryDx=0;entryDy=0;" edge="1" parent="1" target="Ypo_s_5RHP7YJ0-s-bhN-56">
          <mxGeometry width="50" height="50" relative="1" as="geometry">
            <mxPoint x="-470" y="-2990" as="sourcePoint" />
            <mxPoint x="-370" y="-3180" as="targetPoint" />
            <Array as="points">
              <mxPoint x="-470" y="-2990" />
            </Array>
          </mxGeometry>
        </mxCell>
        <mxCell id="Ypo_s_5RHP7YJ0-s-bhN-59" value="" style="endArrow=classic;html=1;entryX=0;entryY=0.5;entryDx=0;entryDy=0;exitX=1;exitY=0.5;exitDx=0;exitDy=0;" edge="1" parent="1" source="Ypo_s_5RHP7YJ0-s-bhN-45" target="Ypo_s_5RHP7YJ0-s-bhN-44">
          <mxGeometry width="50" height="50" relative="1" as="geometry">
            <mxPoint x="-470" y="-3120" as="sourcePoint" />
            <mxPoint x="-440" y="-3040" as="targetPoint" />
            <Array as="points">
              <mxPoint x="-470" y="-3070" />
            </Array>
          </mxGeometry>
        </mxCell>
        <mxCell id="Ypo_s_5RHP7YJ0-s-bhN-60" value="" style="endArrow=classic;html=1;entryX=0;entryY=0.5;entryDx=0;entryDy=0;" edge="1" parent="1" target="Ypo_s_5RHP7YJ0-s-bhN-55">
          <mxGeometry width="50" height="50" relative="1" as="geometry">
            <mxPoint x="-470" y="-3150" as="sourcePoint" />
            <mxPoint x="-440" y="-2990" as="targetPoint" />
            <Array as="points">
              <mxPoint x="-470" y="-2910" />
            </Array>
          </mxGeometry>
        </mxCell>
        <mxCell id="Ypo_s_5RHP7YJ0-s-bhN-61" value="" style="endArrow=classic;html=1;entryX=0;entryY=0.5;entryDx=0;entryDy=0;" edge="1" parent="1" target="Ypo_s_5RHP7YJ0-s-bhN-45">
          <mxGeometry width="50" height="50" relative="1" as="geometry">
            <mxPoint x="-610" y="-3340" as="sourcePoint" />
            <mxPoint x="-580" y="-3140" as="targetPoint" />
            <Array as="points">
              <mxPoint x="-610" y="-3070" />
            </Array>
          </mxGeometry>
        </mxCell>
        <mxCell id="Ypo_s_5RHP7YJ0-s-bhN-63" value="신청, 초대&lt;br&gt;확인" style="ellipse;whiteSpace=wrap;html=1;" vertex="1" parent="1">
          <mxGeometry x="-300" y="-3100" width="90" height="60" as="geometry" />
        </mxCell>
        <mxCell id="Ypo_s_5RHP7YJ0-s-bhN-64" value="매칭 완료" style="ellipse;whiteSpace=wrap;html=1;" vertex="1" parent="1">
          <mxGeometry x="-300" y="-2940" width="90" height="60" as="geometry" />
        </mxCell>
        <mxCell id="Ypo_s_5RHP7YJ0-s-bhN-65" value="메세지" style="ellipse;whiteSpace=wrap;html=1;" vertex="1" parent="1">
          <mxGeometry x="-300" y="-3020" width="90" height="60" as="geometry" />
        </mxCell>
        <mxCell id="Ypo_s_5RHP7YJ0-s-bhN-66" value="" style="endArrow=classic;html=1;exitX=1;exitY=0.5;exitDx=0;exitDy=0;entryX=0;entryY=0.5;entryDx=0;entryDy=0;" edge="1" parent="1" source="Ypo_s_5RHP7YJ0-s-bhN-56" target="Ypo_s_5RHP7YJ0-s-bhN-65">
          <mxGeometry width="50" height="50" relative="1" as="geometry">
            <mxPoint x="-420" y="-3020" as="sourcePoint" />
            <mxPoint x="-370" y="-3070" as="targetPoint" />
          </mxGeometry>
        </mxCell>
        <mxCell id="Ypo_s_5RHP7YJ0-s-bhN-67" value="" style="endArrow=classic;html=1;entryX=0;entryY=0.5;entryDx=0;entryDy=0;" edge="1" parent="1" target="Ypo_s_5RHP7YJ0-s-bhN-63">
          <mxGeometry width="50" height="50" relative="1" as="geometry">
            <mxPoint x="-330" y="-2990" as="sourcePoint" />
            <mxPoint x="-290" y="-2980" as="targetPoint" />
            <Array as="points">
              <mxPoint x="-330" y="-3070" />
            </Array>
          </mxGeometry>
        </mxCell>
        <mxCell id="Ypo_s_5RHP7YJ0-s-bhN-68" value="" style="endArrow=classic;html=1;entryX=0;entryY=0.5;entryDx=0;entryDy=0;" edge="1" parent="1" target="Ypo_s_5RHP7YJ0-s-bhN-64">
          <mxGeometry width="50" height="50" relative="1" as="geometry">
            <mxPoint x="-330" y="-2990" as="sourcePoint" />
            <mxPoint x="-290" y="-2980" as="targetPoint" />
            <Array as="points">
              <mxPoint x="-330" y="-2910" />
            </Array>
          </mxGeometry>
        </mxCell>
        <mxCell id="Ypo_s_5RHP7YJ0-s-bhN-81" style="edgeStyle=orthogonalEdgeStyle;rounded=0;orthogonalLoop=1;jettySize=auto;html=1;entryX=0;entryY=0.5;entryDx=0;entryDy=0;" edge="1" parent="1" target="Ypo_s_5RHP7YJ0-s-bhN-70">
          <mxGeometry relative="1" as="geometry">
            <mxPoint x="-450" y="-2750" as="sourcePoint" />
          </mxGeometry>
        </mxCell>
        <mxCell id="Ypo_s_5RHP7YJ0-s-bhN-69" value="관리자" style="shape=umlActor;verticalLabelPosition=bottom;verticalAlign=top;html=1;outlineConnect=0;" vertex="1" parent="1">
          <mxGeometry x="-500" y="-2790" width="40" height="80" as="geometry" />
        </mxCell>
        <mxCell id="Ypo_s_5RHP7YJ0-s-bhN-82" style="edgeStyle=orthogonalEdgeStyle;rounded=0;orthogonalLoop=1;jettySize=auto;html=1;exitX=0.5;exitY=1;exitDx=0;exitDy=0;entryX=0.5;entryY=0;entryDx=0;entryDy=0;" edge="1" parent="1" source="Ypo_s_5RHP7YJ0-s-bhN-70" target="Ypo_s_5RHP7YJ0-s-bhN-71">
          <mxGeometry relative="1" as="geometry" />
        </mxCell>
        <mxCell id="Ypo_s_5RHP7YJ0-s-bhN-70" value="로그인" style="ellipse;whiteSpace=wrap;html=1;" vertex="1" parent="1">
          <mxGeometry x="-350" y="-2780" width="90" height="60" as="geometry" />
        </mxCell>
        <mxCell id="Ypo_s_5RHP7YJ0-s-bhN-83" style="edgeStyle=orthogonalEdgeStyle;rounded=0;orthogonalLoop=1;jettySize=auto;html=1;entryX=0.5;entryY=0;entryDx=0;entryDy=0;" edge="1" parent="1" target="Ypo_s_5RHP7YJ0-s-bhN-72">
          <mxGeometry relative="1" as="geometry">
            <mxPoint x="-305" y="-2600" as="sourcePoint" />
          </mxGeometry>
        </mxCell>
        <mxCell id="Ypo_s_5RHP7YJ0-s-bhN-84" style="edgeStyle=orthogonalEdgeStyle;rounded=0;orthogonalLoop=1;jettySize=auto;html=1;entryX=0.5;entryY=0;entryDx=0;entryDy=0;" edge="1" parent="1" target="Ypo_s_5RHP7YJ0-s-bhN-73">
          <mxGeometry relative="1" as="geometry">
            <mxPoint x="-305" y="-2600" as="sourcePoint" />
          </mxGeometry>
        </mxCell>
        <mxCell id="Ypo_s_5RHP7YJ0-s-bhN-85" style="edgeStyle=orthogonalEdgeStyle;rounded=0;orthogonalLoop=1;jettySize=auto;html=1;entryX=0.5;entryY=0;entryDx=0;entryDy=0;" edge="1" parent="1" target="Ypo_s_5RHP7YJ0-s-bhN-74">
          <mxGeometry relative="1" as="geometry">
            <mxPoint x="-305" y="-2600" as="sourcePoint" />
          </mxGeometry>
        </mxCell>
        <mxCell id="Ypo_s_5RHP7YJ0-s-bhN-86" style="edgeStyle=orthogonalEdgeStyle;rounded=0;orthogonalLoop=1;jettySize=auto;html=1;entryX=0.5;entryY=0;entryDx=0;entryDy=0;exitX=0.5;exitY=1;exitDx=0;exitDy=0;" edge="1" parent="1" source="Ypo_s_5RHP7YJ0-s-bhN-71" target="Ypo_s_5RHP7YJ0-s-bhN-75">
          <mxGeometry relative="1" as="geometry">
            <mxPoint x="-363" y="-2620" as="sourcePoint" />
            <Array as="points">
              <mxPoint x="-305" y="-2600" />
              <mxPoint x="-364" y="-2600" />
            </Array>
          </mxGeometry>
        </mxCell>
        <mxCell id="Ypo_s_5RHP7YJ0-s-bhN-87" style="edgeStyle=orthogonalEdgeStyle;rounded=0;orthogonalLoop=1;jettySize=auto;html=1;" edge="1" parent="1" target="Ypo_s_5RHP7YJ0-s-bhN-76">
          <mxGeometry relative="1" as="geometry">
            <mxPoint x="-305" y="-2600" as="sourcePoint" />
            <Array as="points">
              <mxPoint x="-245" y="-2600" />
            </Array>
          </mxGeometry>
        </mxCell>
        <mxCell id="Ypo_s_5RHP7YJ0-s-bhN-88" style="edgeStyle=orthogonalEdgeStyle;rounded=0;orthogonalLoop=1;jettySize=auto;html=1;entryX=0.5;entryY=0;entryDx=0;entryDy=0;" edge="1" parent="1" target="Ypo_s_5RHP7YJ0-s-bhN-77">
          <mxGeometry relative="1" as="geometry">
            <mxPoint x="-305" y="-2600" as="sourcePoint" />
          </mxGeometry>
        </mxCell>
        <mxCell id="Ypo_s_5RHP7YJ0-s-bhN-89" style="edgeStyle=orthogonalEdgeStyle;rounded=0;orthogonalLoop=1;jettySize=auto;html=1;entryX=0.5;entryY=0;entryDx=0;entryDy=0;" edge="1" parent="1" target="Ypo_s_5RHP7YJ0-s-bhN-78">
          <mxGeometry relative="1" as="geometry">
            <mxPoint x="-305" y="-2600" as="sourcePoint" />
          </mxGeometry>
        </mxCell>
        <mxCell id="Ypo_s_5RHP7YJ0-s-bhN-90" style="edgeStyle=orthogonalEdgeStyle;rounded=0;orthogonalLoop=1;jettySize=auto;html=1;entryX=0.5;entryY=0;entryDx=0;entryDy=0;" edge="1" parent="1" target="Ypo_s_5RHP7YJ0-s-bhN-79">
          <mxGeometry relative="1" as="geometry">
            <mxPoint x="-305" y="-2600" as="sourcePoint" />
          </mxGeometry>
        </mxCell>
        <mxCell id="Ypo_s_5RHP7YJ0-s-bhN-71" value="대쉬보드" style="ellipse;whiteSpace=wrap;html=1;" vertex="1" parent="1">
          <mxGeometry x="-350" y="-2680" width="90" height="60" as="geometry" />
        </mxCell>
        <mxCell id="Ypo_s_5RHP7YJ0-s-bhN-72" value="회원 관리" style="ellipse;whiteSpace=wrap;html=1;" vertex="1" parent="1">
          <mxGeometry x="-770" y="-2540" width="90" height="60" as="geometry" />
        </mxCell>
        <mxCell id="Ypo_s_5RHP7YJ0-s-bhN-73" value="하우스 관리" style="ellipse;whiteSpace=wrap;html=1;" vertex="1" parent="1">
          <mxGeometry x="-650" y="-2540" width="90" height="60" as="geometry" />
        </mxCell>
        <mxCell id="Ypo_s_5RHP7YJ0-s-bhN-74" value="메이트&amp;nbsp;관리" style="ellipse;whiteSpace=wrap;html=1;" vertex="1" parent="1">
          <mxGeometry x="-530" y="-2540" width="90" height="60" as="geometry" />
        </mxCell>
        <mxCell id="Ypo_s_5RHP7YJ0-s-bhN-75" value="신고&amp;nbsp;관리" style="ellipse;whiteSpace=wrap;html=1;" vertex="1" parent="1">
          <mxGeometry x="-408.5" y="-2540" width="90" height="60" as="geometry" />
        </mxCell>
        <mxCell id="Ypo_s_5RHP7YJ0-s-bhN-76" value="매출&amp;nbsp;관리" style="ellipse;whiteSpace=wrap;html=1;" vertex="1" parent="1">
          <mxGeometry x="-290" y="-2540" width="90" height="60" as="geometry" />
        </mxCell>
        <mxCell id="Ypo_s_5RHP7YJ0-s-bhN-77" value="결제 관리" style="ellipse;whiteSpace=wrap;html=1;" vertex="1" parent="1">
          <mxGeometry x="-170" y="-2540" width="90" height="60" as="geometry" />
        </mxCell>
        <mxCell id="Ypo_s_5RHP7YJ0-s-bhN-78" value="문의 관리" style="ellipse;whiteSpace=wrap;html=1;" vertex="1" parent="1">
          <mxGeometry x="-50" y="-2540" width="90" height="60" as="geometry" />
        </mxCell>
        <mxCell id="Ypo_s_5RHP7YJ0-s-bhN-79" value="FAQ 관리" style="ellipse;whiteSpace=wrap;html=1;" vertex="1" parent="1">
          <mxGeometry x="70" y="-2540" width="90" height="60" as="geometry" />
        </mxCell>
        <mxCell id="Ypo_s_5RHP7YJ0-s-bhN-93" value="회원 목록,&lt;br&gt;검색" style="ellipse;whiteSpace=wrap;html=1;" vertex="1" parent="1">
          <mxGeometry x="-770" y="-2448" width="90" height="60" as="geometry" />
        </mxCell>
        <mxCell id="Ypo_s_5RHP7YJ0-s-bhN-94" value="하우스 목록,&lt;br&gt;검색" style="ellipse;whiteSpace=wrap;html=1;" vertex="1" parent="1">
          <mxGeometry x="-650" y="-2448" width="90" height="60" as="geometry" />
        </mxCell>
        <mxCell id="Ypo_s_5RHP7YJ0-s-bhN-95" value="메이트 목록,&lt;br&gt;검색" style="ellipse;whiteSpace=wrap;html=1;" vertex="1" parent="1">
          <mxGeometry x="-530" y="-2448" width="90" height="60" as="geometry" />
        </mxCell>
        <mxCell id="Ypo_s_5RHP7YJ0-s-bhN-96" value="신고 목록,&lt;br&gt;검색" style="ellipse;whiteSpace=wrap;html=1;" vertex="1" parent="1">
          <mxGeometry x="-408.5" y="-2448" width="90" height="60" as="geometry" />
        </mxCell>
        <mxCell id="Ypo_s_5RHP7YJ0-s-bhN-97" value="매출&amp;nbsp;목록,&lt;br&gt;기간 설정" style="ellipse;whiteSpace=wrap;html=1;" vertex="1" parent="1">
          <mxGeometry x="-290" y="-2448" width="90" height="60" as="geometry" />
        </mxCell>
        <mxCell id="Ypo_s_5RHP7YJ0-s-bhN-98" value="결제 내역&lt;br&gt;목록" style="ellipse;whiteSpace=wrap;html=1;" vertex="1" parent="1">
          <mxGeometry x="-170" y="-2448" width="90" height="60" as="geometry" />
        </mxCell>
        <mxCell id="Ypo_s_5RHP7YJ0-s-bhN-99" value="문의 답변" style="ellipse;whiteSpace=wrap;html=1;" vertex="1" parent="1">
          <mxGeometry x="-50" y="-2448" width="90" height="60" as="geometry" />
        </mxCell>
        <mxCell id="Ypo_s_5RHP7YJ0-s-bhN-100" value="질문 수정,&lt;br&gt;삭제" style="ellipse;whiteSpace=wrap;html=1;" vertex="1" parent="1">
          <mxGeometry x="70" y="-2448" width="90" height="60" as="geometry" />
        </mxCell>
        <mxCell id="Ypo_s_5RHP7YJ0-s-bhN-101" value="회원 수정" style="ellipse;whiteSpace=wrap;html=1;" vertex="1" parent="1">
          <mxGeometry x="-770" y="-2350" width="90" height="60" as="geometry" />
        </mxCell>
        <mxCell id="Ypo_s_5RHP7YJ0-s-bhN-102" value="하우스 수정" style="ellipse;whiteSpace=wrap;html=1;" vertex="1" parent="1">
          <mxGeometry x="-650" y="-2350" width="90" height="60" as="geometry" />
        </mxCell>
        <mxCell id="Ypo_s_5RHP7YJ0-s-bhN-103" value="메이트 수정" style="ellipse;whiteSpace=wrap;html=1;" vertex="1" parent="1">
          <mxGeometry x="-530" y="-2350" width="90" height="60" as="geometry" />
        </mxCell>
        <mxCell id="Ypo_s_5RHP7YJ0-s-bhN-104" value="신고 처리" style="ellipse;whiteSpace=wrap;html=1;" vertex="1" parent="1">
          <mxGeometry x="-408.5" y="-2350" width="90" height="60" as="geometry" />
        </mxCell>
      </root>
    </mxGraphModel>
  </diagram>
</mxfile>
